<?xml version="1.0" encoding="UTF-8" standalone="no"?>
<!-- Generator: Adobe Illustrator 19.2.1, SVG Export Plug-In . SVG Version: 6.00 Build 0)  -->

<svg
   version="1.1"
   x="0px"
   y="0px"
   viewBox="0 0 512 512"
   enable-background="new 0 0 512 512"
   xml:space="preserve"
   id="svg65"
   sodipodi:docname="MassivePoints.svg"
   inkscape:version="1.1.2 (0a00cf5339, 2022-02-04)"
   xmlns:inkscape="http://www.inkscape.org/namespaces/inkscape"
   xmlns:sodipodi="http://sodipodi.sourceforge.net/DTD/sodipodi-0.dtd"
   xmlns="http://www.w3.org/2000/svg"
   xmlns:svg="http://www.w3.org/2000/svg"><defs
   id="defs69" /><sodipodi:namedview
   id="namedview67"
   pagecolor="#505050"
   bordercolor="#ffffff"
   borderopacity="1"
   inkscape:pageshadow="0"
   inkscape:pageopacity="0"
   inkscape:pagecheckerboard="1"
   showgrid="false"
   inkscape:zoom="2.5917969"
   inkscape:cx="90.477769"
   inkscape:cy="193.4951"
   inkscape:window-width="3770"
   inkscape:window-height="1536"
   inkscape:window-x="3910"
   inkscape:window-y="1107"
   inkscape:window-maximized="1"
   inkscape:current-layer="svg65" />


<g
   id="g354"><ellipse
     style="fill:#003380;stroke-width:0.986259"
     id="path249"
     cx="264.75009"
     cy="258.3663"
     rx="336.43942"
     ry="151.21979" /><g
     id="Layer_2"
     style="fill:#338000">
	<path
   fill="#13A031"
   d="m 387.548,144.017 c 3.408,0.692 6.687,0.993 7.231,5.868 0.277,2.483 3.627,2.737 6.1,2.804 4.436,0.121 5.596,0.838 5.332,4.793 -0.213,3.194 0.819,4.139 3.805,4.402 3.932,0.346 7.616,1.467 11.754,-0.124 3.724,-1.431 5.854,0.458 7.622,4.943 0.375,0.95 0.912,2.217 2.022,1.532 5.06,-3.122 11.102,-0.69 16.523,-3.445 3.601,-1.83 8.732,-1.001 12.345,2.471 1.747,1.679 3.82,2.486 5.988,1.01 2.299,-1.565 4.203,-0.125 5.386,1.092 3.758,3.865 8.001,2.716 12.313,1.894 0.577,-0.11 1.136,-0.318 1.703,-0.48 2.342,-0.671 0.147,4.704 2.772,2.413 1.391,-1.214 2.364,-1.468 3.937,-1.659 7.167,-0.871 12.452,3.194 17.948,6.797 -1.498,3.52 -1.131,2.656 -2.629,6.175 -0.19,-0.048 -0.381,-0.093 -0.573,-0.133 -1.559,-0.325 -2.982,-3.053 -3.452,-2.307 -0.972,1.54 -2.927,2.857 -2.673,5.011 0.326,2.764 -1.041,3.417 -3.489,3.534 -2.18,0.104 -4.407,0.49 -6.095,2.213 -1.375,1.405 -3.004,1.433 -4.954,1.358 -5.038,-0.194 -7.75,2.198 -8.38,7.305 -0.647,5.238 -5.538,7.118 -8.125,10.807 -0.836,1.192 -1.586,-0.353 -2.035,-1.148 -2.053,-3.638 -0.781,-7.02 1.05,-10.212 0.886,-1.544 2.31,-2.772 3.434,-4.189 0.682,-0.859 2.456,-1.411 1.648,-2.747 -0.715,-1.182 -2.358,-1.503 -3.782,-1.466 -1.779,0.047 -2.983,1.267 -3.803,2.652 -1.429,2.414 -3.113,2.059 -5.589,1.615 -6.455,-1.157 -13.138,-1.834 -17.634,4.644 -1.19,1.715 -4.873,1.965 -3.75,4.75 1.057,2.621 4.312,0.887 6.517,1.566 1.629,0.501 3.825,-0.061 3.898,2.132 0.078,2.364 2.484,5.01 -0.2,7.116 -0.833,0.654 -1.585,1.052 -1.698,2.165 -0.057,0.561 -0.038,1.41 -0.724,1.408 -0.649,-0.002 -0.578,-0.84 -0.645,-1.379 -0.049,-0.398 -0.015,-0.805 -0.061,-1.204 -0.128,-1.119 0.365,-2.333 -0.504,-3.34 -0.303,1.133 -0.407,2.373 -0.944,3.382 -2.557,4.817 -5.283,9.367 -11.26,10.817 -5.476,1.328 -6.02,2.449 -4.703,7.979 0.48,2.016 0.491,3.733 -1.671,4.446 -2.09,0.689 -2.741,-1.252 -3.462,-2.596 -0.556,-1.036 -0.868,-2.254 -1.049,-3.427 -0.265,-1.718 -1.219,-1.873 -2.558,-1.381 -1.042,0.383 -2.148,1.681 -3.099,0.143 -0.656,-1.061 -1.074,-1.763 -2.021,-0.432 -0.567,0.797 -1.46,1.779 -1.349,2.555 0.241,1.688 1.493,0.322 2.307,0.401 2.327,0.228 4.52,0.505 1.462,3.248 -1.387,1.244 -0.972,2.872 -0.654,4.496 1.624,8.294 -1.931,14.421 -9.803,17.233 -1.967,0.703 -4.424,0.583 -5.273,3.356 -0.541,1.767 -1.349,1.617 -2.135,-0.152 -0.95,-2.139 -2.372,-0.77 -3.438,-0.024 -1.447,1.014 -1.471,2.284 -0.128,3.501 0.596,0.54 1.234,1.038 1.791,1.615 3.801,3.935 2.463,9.444 -2.709,11.499 -1.426,0.567 -1.645,-0.407 -2.216,-1.217 -1.553,-2.203 -4.233,-4.803 -6.227,-2.999 -2.573,2.328 0.148,5.093 2.195,7.052 1.506,1.441 3.279,3.176 2.897,5.048 -0.875,4.282 2.918,6.886 3.159,10.679 0.109,1.71 1.756,1.966 3.127,2.346 4.021,1.115 7.765,3.419 12.209,2.726 0.764,-0.119 1.887,0.188 1.943,1.01 0.08,1.166 -1.131,0.83 -1.839,0.894 -5.069,0.455 -10.258,-0.399 -14.817,-1.856 -3.515,-1.123 -6.489,-5.166 -8.773,-8.54 -1.92,-2.836 -3.978,-5.497 -6.226,-8.029 -0.658,-0.741 -1.888,-1.209 -1.093,-2.33 0.897,-1.264 2.206,-0.767 3.136,0.052 1.35,1.189 2.528,2.573 3.795,3.858 0.42,0.426 1.021,0.892 1.529,0.463 0.596,-0.502 -0.042,-1.048 -0.354,-1.484 -3.299,-4.616 -4.536,-9.737 -4.083,-15.38 0.169,-2.104 -0.175,-4.21 -3.297,-3.536 -2.686,0.58 -2.615,-1.983 -3.548,-3.303 -3.915,-5.54 -5.369,-5.682 -10.398,-1.191 -1.155,1.031 -2.421,1.938 -3.684,2.834 -4.344,3.083 -5.489,7.65 -3.257,12.72 0.457,1.039 1.577,2.189 0.34,3.241 -1.14,0.97 -2.101,-0.257 -3.187,-0.628 -5.012,-1.713 -6.9,-5.889 -7.589,-10.382 -1.027,-6.693 -6.065,-10.562 -9.666,-15.465 -0.924,-1.259 -2.304,-1.525 -3.752,-1.55 -1.809,-0.032 -3.633,-0.192 -5.424,-0.017 -1.115,0.109 -2.176,-0.053 -3.222,-0.282 -1.784,-0.39 -2.842,1.902 -1.387,3.005 0.694,0.526 1.447,1.005 2.089,1.575 1.156,1.026 -0.034,1.648 -0.37,2.518 -2.124,5.505 -7.421,6.922 -11.972,9.013 -2.846,1.307 -5.541,3.283 -8.87,3.479 -0.618,0.036 -1.233,0.361 -1.233,1.067 0,0.953 0.754,1.413 1.556,1.485 2.039,0.184 3.835,-0.928 5.785,-1.239 2.716,-0.432 4.026,1.41 2.815,3.879 -2.389,4.873 -5.461,9.368 -9.861,12.794 -6.738,5.247 -7.38,7.39 -4.853,15.249 1.98,6.159 1.748,7.088 -3.623,11.162 -2.049,1.555 -3.805,2.98 -2.786,5.923 0.403,1.164 0.502,2.755 -0.462,3.42 -3.853,2.661 -5.114,7.087 -7.533,10.687 -3.889,5.787 -9.849,5.509 -15.583,5.945 -1.797,0.137 -3.152,-1.645 -3.334,-3.038 -0.656,-5.013 -3.142,-9.576 -4.865,-13.997 -2.651,-6.803 -4.64,-12.668 -1.984,-19.841 0.762,-2.059 -0.242,-5.46 -1.597,-7.46 -2.27,-3.351 -3.349,-6.727 -3.244,-10.669 0.033,-1.256 -0.65,-2.82 -1.916,-2.636 -3.452,0.502 -6.252,-2.678 -9.144,-2.027 -3.245,0.731 -6.798,0.092 -9.78,1.947 -2.003,1.246 -3.775,0.745 -5.599,-0.454 -4.58,-3.01 -7.175,-7.934 -11.171,-11.506 -0.419,-0.375 -0.672,-1.111 -0.572,-1.664 1.374,-7.608 -1.254,-16.357 5.925,-22.326 3.49,-2.902 4.868,-7.349 8.226,-10.323 1.41,-1.249 1.475,-2.94 -0.668,-3.776 -1.429,-0.558 -2.919,-1.361 -2.454,-2.904 0.775,-2.571 -0.717,-5.281 0.586,-7.634 1.17,-2.111 3.442,-1.728 5.432,-1.622 5.931,0.316 6.473,-0.139 5.419,-6.187 -0.446,-2.562 0.164,-3.757 2.353,-5.341 2.539,-1.838 4.965,-3.975 7.546,-5.798 4.152,-2.934 4.621,-4.074 1.656,-8.53 -0.928,-1.394 -1.53,-2.758 -1.896,-4.328 -1.018,-4.374 -0.332,-6.256 3.797,-8.196 2.881,-1.353 5.041,-3.124 6.308,-6.083 2.201,-5.141 6.441,-8.055 11.46,-9.987 2.06,-0.793 4.212,-1.346 6.286,-2.107 3.695,-1.356 6.851,-1.983 10.201,1.562 2.205,2.333 6.412,1.974 9.331,3.866 0.992,0.644 2.534,0.755 3.155,1.601 2.43,3.307 4.211,5.019 5.591,-0.702 0.317,-1.313 2.416,-1.751 3.548,-0.403 1.72,2.049 3.269,1.569 5.221,0.442 3.274,-1.89 7.072,-0.932 10.598,-1.619 3.742,-0.729 1.287,-2.342 0.805,-3.733 l 0.067,-0.083 c 2.944,0.603 5.874,1.29 8.837,1.774 1.568,0.256 2.673,0.294 3.16,-2.161 1.057,-5.329 3.45,-6.334 9.301,-5.783 2.094,0.197 4.118,-0.164 6.239,0.773 1.225,0.541 3.422,0.303 3.762,-1.873 0.474,-3.035 2.025,-2.644 4.311,-1.974 2.114,0.619 4.999,1.678 4.969,-2.589 -0.008,-1.118 1.374,-1.322 2.345,-1.534 4.265,-0.93 8.243,-2.888 12.841,-2.683 4.222,0.188 5.361,-2.615 3.092,-6.64 1.244,-0.986 1.96,-2.349 2.629,-3.746 z m -135.297,83.107 c -4.451,0.786 -7.471,3.471 -9.284,7.34 -0.886,1.891 -1.658,3.587 -3.617,4.518 -0.653,0.31 -1.977,0.132 -1.817,0.984 0.125,0.664 1.461,0.525 2.177,0.275 3.588,-1.251 7.159,-2.422 11.005,-2.756 2.101,-0.183 3.987,0.119 5.818,0.957 1.8,0.824 1.569,2.526 1.668,4.142 0.078,1.256 1.061,2.303 2.318,2.368 4.028,0.207 7.866,3.622 12.133,0.646 0.658,-0.459 2.089,-0.364 2.891,0.029 4.438,2.179 9.185,0.667 13.746,1.294 2.234,0.307 3.028,-1.88 3.456,-3.502 0.523,-1.984 -1.087,-2.024 -2.632,-2.131 -1.338,-0.093 -2.726,-1.213 -3.942,-1.005 -4.188,0.716 -6.032,-1.023 -6.297,-5.043 -0.053,-0.812 -0.546,-1.586 -1.555,-1.447 -0.679,0.094 -0.62,0.839 -0.877,1.333 -1.483,2.854 -5.322,3.344 -7.158,0.916 -0.557,-0.736 -0.606,-2.689 -1.415,-2.283 -4.169,2.092 -6.013,-1.779 -8.791,-3.123 -1.824,-0.883 -2.958,-1.207 -3.141,1.441 -0.097,1.409 -0.885,3.188 -2.474,2.72 -2.283,-0.672 -0.257,-2.255 -0.159,-3.45 0.151,-1.791 1.447,-4.175 -2.053,-4.223 z m 15.908,-21.938 c 2.779,0.145 2.549,-0.001 3.678,-1.78 2.651,-4.179 1.6,-8.31 0.216,-12.472 -0.389,-1.171 -0.234,-3.334 -2.38,-2.569 -1.634,0.583 -2.657,2.485 -1.598,3.924 3.579,4.868 -1.13,7.218 -3.056,10.162 -1.204,1.841 -3.624,3.708 -5.668,0.231 -0.299,-0.509 -0.988,-0.921 -1.472,-0.441 -0.347,0.344 -0.485,1.127 -0.388,1.654 0.638,3.454 3.359,2.718 5.685,2.724 1.794,0.005 2.931,-2.307 4.983,-1.433 z m 33.065,24.301 c -0.848,-3.305 -5.536,-3.019 -6.229,-6.811 -0.158,-0.865 -1.34,1.328 -2.181,1.964 -1.332,1.007 -2.677,1.308 -3.502,-0.348 -0.675,-1.355 -1.401,-2.169 -2.575,-0.932 -1.342,1.414 -2.931,2.874 -2.673,5.157 0.164,1.451 1.28,2.279 2.506,2.012 3.848,-0.838 7.412,-0.3 11.045,1.13 1.522,0.598 3.189,-0.12 3.609,-2.172 z m -3.793,31.371 c -1.259,0.272 -1.308,1.187 -1.374,2.188 -0.194,2.918 1.904,4.615 3.447,6.602 0.7,0.901 1.419,2.512 2.576,2.019 1.67,-0.712 0.618,-2.352 0.302,-3.59 -0.599,-2.352 -2.333,-4.072 -3.548,-6.08 -0.278,-0.462 -0.88,-0.728 -1.403,-1.139 z"
   id="path56"
   style="fill:#338000" />
</g><g
     id="Layer_3"
     style="fill:#338000">
	<path
   fill="#13A031"
   d="m -3.619,209.272 c 5.029,-3.084 10.121,-6.033 15.75,-7.933 0.718,-0.242 1.716,-0.687 1.638,-1.555 -0.09,-1.005 -1.303,-0.568 -1.939,-0.942 -2.591,-1.524 -5.277,-2.915 -7.733,-4.634 -3.034,-2.124 -2.893,-3.882 0.231,-5.785 0.674,-0.411 1.467,-0.624 2.201,-0.94 0.841,-0.363 2.553,-0.113 2.217,-1.354 -0.295,-1.09 -1.758,-0.06 -2.699,-0.113 -0.791,-0.044 -1.641,0.001 -2.354,-0.278 -1.375,-0.538 -2.588,-1.563 -2.342,-3.127 0.313,-1.991 2.081,-2.145 3.738,-2.164 0.738,-0.009 1.796,0.856 2.124,-0.068 0.305,-0.858 -0.959,-0.995 -1.596,-1.408 -4.759,-3.09 -4.741,-3.846 0.053,-6.629 1.213,-0.704 2.349,-1.569 3.622,-2.132 3.619,-1.6 7.02,-2.569 11.291,-1.067 4.629,1.628 9.835,1.533 14.718,2.54 6.058,1.249 11.81,1.278 17.988,-0.292 5.934,-1.508 12.295,-0.386 18.247,1.707 0.715,0.251 1.632,0.883 2.188,0.053 0.503,-0.751 -0.111,-1.566 -0.784,-2.019 -1.005,-0.675 -1.924,-1.242 -2.179,-2.642 -0.289,-1.586 -1.227,-1.94 -2.45,-0.625 -1.45,1.559 -3.195,1.531 -4.975,0.756 -1.822,-0.793 -3.215,-1.957 -1.954,-4.155 0.706,-1.231 1.479,-2.355 1.394,-3.874 -0.12,-2.131 1.743,-2.6 2.805,-1.918 3.417,2.192 7.701,0.977 11.172,3.659 2.854,2.206 6.795,2.853 10.56,0.558 2.173,-1.324 4.466,-1.617 3.991,2.29 -0.184,1.517 0.325,3.173 1.449,3.768 3.086,1.633 5.675,2.892 1.282,6.087 -0.921,0.67 -0.236,1.932 0.91,2.257 1.366,0.387 3.325,0.656 3.482,-1.086 0.184,-2.041 0.892,-3.149 2.485,-4.326 2.599,-1.92 2.162,-3.092 -1.176,-3.127 -2.712,-0.029 -3.641,-2.839 -5.682,-3.958 2.377,-0.428 3.311,-3.279 5.874,-3.455 1.395,-0.096 2.777,-0.398 4.162,-0.626 1.976,-0.325 3.329,-1.309 3.62,-3.431 0.148,-1.076 0.07,-2.068 -1.201,-2.321 -1.813,-0.36 -3.407,-1.438 -5.043,1.187 -2.31,3.705 -6.887,0.604 -10.086,2.301 -0.276,-0.732 -0.553,-1.464 -0.829,-2.195 0.501,-0.532 0.557,-1.063 -0.002,-1.594 0.411,-2.134 -1.138,-4.058 -0.103,-6.451 1.736,-4.014 2.172,-4.424 5.672,-2.206 1.044,0.662 2.38,1.408 1.972,2.693 -0.547,1.718 -2.002,0.262 -3.042,0.332 -1.291,0.087 -2.534,0.203 -2.548,1.823 -0.014,1.594 1.163,1.877 2.495,1.869 1.403,-0.008 2.81,0.13 4.208,0.055 2.579,-0.138 4.086,-1.013 2.013,-3.684 -0.902,-1.163 -2.06,-2.447 -0.573,-3.621 1.548,-1.223 2.622,0.554 3.372,1.5 0.749,0.945 3.376,0.944 1.821,3.541 -0.471,0.787 2.022,1.324 3.295,1.638 0.609,0.15 1.208,-0.222 1.36,-0.901 0.308,-1.379 -0.349,-2.298 -1.527,-2.923 -0.181,-0.096 -0.37,-0.204 -0.535,-0.326 -7.44,-5.468 -7.351,-7.183 0.638,-11.885 1.385,-0.815 2.84,-1.403 4.442,-1.784 8.178,-1.95 16.559,-2.513 24.859,-3.484 3.469,-0.406 7.144,0.782 10.702,1.387 1.352,0.23 3.715,0.788 3.748,1.315 0.097,1.532 -2.031,1.476 -2.982,2.454 -0.54,0.556 -1.547,0.952 -1.01,1.886 0.613,1.065 1.97,1.116 2.556,0.33 3.491,-4.677 8.36,-3.494 13.149,-3.792 3.897,-0.242 7.833,-0.755 11.838,-2.133 4.41,-1.518 9.67,-1.958 14.625,-2.355 0.993,-0.079 2.27,0.485 2.964,0.043 5.994,-3.812 11.006,1.861 16.602,1.591 0.667,-0.032 1.181,0.532 0.967,1.201 -0.16,0.5 -0.678,1.218 -1.085,1.251 -2.796,0.229 -5.606,0.289 -8.41,0.44 -0.578,0.031 -1.148,0.221 -1.722,0.338 0.34,0.981 1.212,0.646 1.845,0.645 5.989,-0.014 11.967,0.832 17.975,0.112 1.459,-0.175 3.574,-0.383 3.861,1.812 0.226,1.727 -1.61,2.054 -2.804,2.709 -4.292,2.356 -9.078,4.428 -5.79,10.858 0.411,0.803 -0.656,1.545 -0.638,2.169 0.162,5.545 -4.685,9.879 -3.65,15.66 0.291,1.626 -0.73,3.322 -2.383,3.832 -3.611,1.114 -6.42,4.297 -10.544,4.04 -0.39,-0.024 -0.873,0.003 -1.175,0.21 -5.904,4.038 -13.766,5.954 -15.743,14.283 -0.751,3.163 -2.603,3.558 -5.428,2.75 -4.475,-1.28 -6.688,-4.685 -8.936,-8.361 -2.329,-3.809 -3.339,-7.257 0.228,-10.834 0.557,-0.558 0.518,-1.258 -0.261,-1.987 -1.779,-1.664 -4.923,-7.116 -5.395,-8.929 -1.447,-5.562 -6.985,-10.103 -12.472,-8.637 -6.063,1.62 -8.245,-2.416 -11.29,-5.61 -1.238,-1.298 -0.153,-2.206 0.966,-2.765 1.601,-0.801 3.487,-0.796 5.038,-1.903 1.257,-0.897 1.342,-1.663 0.701,-2.983 -0.676,-1.393 -1.504,-0.903 -2.42,-0.536 -5.449,2.182 -10.285,4.855 -12.074,11.194 -0.599,2.125 -2.277,3.859 -2.827,6.293 -0.473,2.094 -3.341,1.617 -5.275,1.931 -0.705,0.115 -1.926,-0.552 -1.988,0.424 -0.046,0.724 1.419,0.378 2.047,0.739 4.346,2.494 9.736,0.976 14.074,4.117 3.454,2.501 7.524,3.812 9.205,8.514 0.82,2.295 3.999,3.125 6.393,4.131 1.119,0.47 2.742,0.833 1.52,2.28 -0.957,1.133 -1.411,3.85 -3.971,2.5 -0.862,-0.455 -1.504,-1.32 -2.265,-1.976 -0.442,-0.381 -1.041,-0.89 -1.532,-0.46 -0.542,0.474 -0.014,1.064 0.363,1.493 0.53,0.604 1.178,1.115 1.648,1.758 0.858,1.174 3.106,2.272 1.347,3.889 -1.327,1.221 -2.998,3.186 -5.245,2.132 -4.427,-2.075 -8.393,-5.417 -13.816,-4.453 -0.514,0.091 -1.019,-0.59 -1.028,-1.245 -0.011,-0.733 0.511,-1.033 1.164,-1.085 0.999,-0.08 2.056,0.066 2.99,-0.212 2.564,-0.764 4.139,-3.933 3.226,-6.217 -1.061,-2.653 -7.489,-5.738 -10.532,-5.389 -2.157,0.248 -0.749,1.097 -0.895,2.014 -0.411,2.584 1.648,6.679 -3.852,6.9 -1.953,0.079 -0.407,1.688 0.38,2.417 1.43,1.325 4.775,1.534 4.383,3.464 -0.373,1.84 -3.634,-0.835 -5.287,1.039 -0.688,0.78 -1.971,0.861 -2.793,0.19 -3.226,-2.632 -5.174,0.1 -7.234,1.732 -6.128,4.856 -5.875,7.54 1.239,10.968 1.609,0.775 3.092,1.941 4.814,2.36 4.486,1.093 8.308,2.765 9.435,7.897 0.199,0.904 1.315,2.542 2.664,1.276 0.742,-0.697 0.747,-1.859 0.174,-2.7 -1.757,-2.58 -1.425,-4.292 1.589,-5.611 1.345,-0.588 0.936,-2.137 0.373,-3.212 -1.001,-1.91 -0.617,-3.925 -0.709,-5.908 -0.234,-5.085 2.622,-6.946 7.201,-4.53 1.741,0.919 3.744,1.997 4.719,3.566 1.636,2.633 2.922,3.998 6.088,2.035 2.058,-1.276 3.522,0.683 4.187,2.277 1.455,3.487 4.116,5.733 6.824,8.14 2.062,1.833 5.325,3.479 3.383,7.402 -0.628,1.267 0.79,1.547 1.567,2.071 1.35,0.911 2.613,1.92 2.913,3.658 0.138,0.799 -0.379,2.208 -0.477,2.132 -2.21,-1.711 -4.849,-0.082 -7.023,-0.954 -1.466,-0.588 -1.548,-2.142 -0.999,-3.658 0.843,-2.329 -0.378,-2.269 -2.114,-1.839 -1.154,0.286 -2.426,0.469 -3.585,0.294 -4.178,-0.629 -3.943,0.791 -2.673,4.123 1.127,2.957 2.281,2.726 4.383,1.539 0.983,-0.555 2.018,-0.43 2.478,0.723 0.437,1.095 -0.245,2.376 -1.08,2.511 -3.133,0.508 -5.691,4.283 -9.413,1.629 -1.12,-0.798 -3.002,-0.192 -3.194,0.699 -0.76,3.536 -3.74,4.467 -6.198,6.09 -0.464,0.306 -0.803,0.933 -1.006,1.483 -1.809,4.878 -4.394,9.053 -8.68,12.332 -2.178,1.666 -2.319,4.563 -0.084,6.958 1.097,1.175 1.407,2.797 -0.071,3.643 -1.464,0.837 -1.67,-1.264 -2.549,-1.914 -0.937,-0.693 -1.729,-1.699 -2.323,-2.72 -1.751,-3.008 -4.44,-3.332 -7.304,-2.414 -1.753,0.562 -3.446,0.987 -5.273,0.988 -3.596,0.002 -6.806,-0.176 -5.972,5.452 0.311,2.099 -2.691,4.457 0.055,7.137 2,1.951 3.807,2.877 6.33,1.302 0.851,-0.531 1.647,-1.154 2.508,-1.669 1.254,-0.751 2.814,-1.327 4.01,-0.586 1.835,1.138 0.038,2.569 -0.447,3.556 -1.56,3.181 -1.253,4.829 2.74,4.796 2.13,-0.017 3.319,1.407 3.368,3.501 0.046,1.962 -0.786,4.429 1.723,5.187 2.617,0.79 5.939,1.058 7.981,-0.574 4.396,-3.513 8.727,-2.769 13.453,-1.288 1.271,0.398 2.591,0.586 3.92,0.673 7.666,0.506 11.885,7.746 18.923,9.456 2.4,8.306 10.977,7.022 16.499,10.471 1.431,0.894 3.269,1.353 4.817,2.308 2.985,1.844 3.808,4.211 1.543,6.99 -2.265,2.778 -2.851,6.034 -3.815,9.325 -1.585,5.409 -2.561,11.657 -10.337,12.149 -2.096,0.133 -3.185,2.105 -3.805,4.21 -2.488,8.448 -3.387,9.339 -12.514,12.865 -0.708,0.274 -0.913,0.554 -0.681,1.204 1.434,4.014 -1.315,5.107 -4.224,5.379 -2.719,0.255 -2.858,2.516 -3.937,3.988 -1.94,2.647 -2.392,6.252 -5.284,8.354 -0.18,0.131 0.022,1.294 0.367,1.559 1.87,1.435 1.041,2.36 -0.148,3.854 -3.944,4.96 -3.873,5.232 -0.331,10.392 0.566,0.824 1.66,1.438 -0.117,2.036 -4.804,1.616 -9.314,-0.618 -11.134,-5.401 -1.42,-3.73 -1.504,-7.806 -0.512,-11.293 2.071,-7.282 1.769,-14.849 3.529,-22.233 1.347,-5.653 2.434,-11.942 2.524,-18.096 0.057,-3.851 -1.479,-6.816 -4.529,-8.619 -3.376,-1.996 -5.268,-4.8 -6.54,-8.294 -0.338,-0.928 -0.945,-1.756 -1.372,-2.656 -1.127,-2.375 -5.605,-3.16 -3.035,-7.365 1.39,-2.274 0.779,-5.583 3.34,-7.463 1.649,-1.21 1.733,-2.97 1.828,-4.841 0.102,-1.999 -0.38,-2.823 -2.579,-3.037 -3.977,-0.386 -8.146,-0.815 -9.126,-6.011 -0.213,-1.129 -1.565,-1.253 -2.46,-1.434 -4.62,-0.939 -8.264,-4.006 -13.604,-4.201 -4.507,-0.164 -10.581,-2.451 -12.868,-8.454 -1.01,-2.651 -2.14,-4.578 -6.319,-3.732 -3.418,0.692 -5.636,-3.607 -6.796,-6.722 -1.809,-4.855 -4.388,-8.583 -8.565,-11.926 -4.515,-3.613 -5.755,-9.549 -5.641,-15.318 0.078,-3.942 0.377,-7.673 -3.863,-9.818 -0.903,-0.457 -1.273,-1.192 -1.398,-2.372 -0.497,-4.68 -0.881,-4.942 -5.851,-5.337 -1.599,-0.127 -1.536,-1.485 -2.124,-2.475 -3.615,-6.082 -8.206,-10.585 -15.877,-11.414 -2.78,-0.301 -4.487,1.133 -6.706,1.562 -2.355,0.455 -5.158,-0.643 -3.61,3.734 0.457,1.294 -1.57,3.253 -3.228,2.717 -3.031,-0.981 -4.475,0.643 -6.029,2.569 -0.37,0.459 -0.842,1.166 -1.289,1.183 -5.492,0.209 -10.032,3.851 -15.455,4.248 -0.191,-0.564 -0.162,-0.478 -0.352,-1.043 z M 110.55,164.376 c -0.985,0.166 -1.969,0.36 -2.652,1.179 -0.779,0.934 -0.486,1.914 0.165,2.696 2.108,2.531 3.675,5.667 7.404,6.421 0.724,0.146 -0.188,2.349 1.373,1.964 0.762,-0.187 1.547,-1.317 1.823,-2.18 0.356,-1.113 -0.657,-1.889 -1.601,-2.122 -3.235,-0.798 -4.377,-3.089 -4.724,-6.085 -0.119,-1.023 -0.431,-1.975 -1.788,-1.873 z"
   id="path59"
   style="fill:#338000" />
</g><g
     id="Layer_4"
     style="fill:#338000">
	<path
   fill="#13A031"
   d="m 446.603,313.211 c -0.053,-2.95 0.058,-5.476 -3.11,-6.241 -0.386,-0.093 -1.091,-0.303 -1.08,-0.393 0.702,-6.101 -4.675,-5.117 -7.796,-6.77 -0.69,-0.366 -1.27,-0.988 -1.813,-1.573 -0.971,-1.047 -2.1,-2.333 -0.979,-3.679 1.313,-1.578 3.412,-1.052 4.115,0.367 1.471,2.97 3.295,2.088 5.819,1.865 5.589,-0.495 10.072,2.498 13.118,6.908 1.183,1.713 4.506,3.632 3.476,4.768 -1.641,1.81 -3.752,-0.956 -5.616,-1.896 -1.5,-0.756 -2.807,-0.38 -3.797,0.768 -1.105,1.282 -0.371,2.552 0.256,3.885 3.052,6.494 7.542,12.008 11.829,17.664 3.99,5.264 4.214,8.171 1.014,13.907 -0.591,1.059 -1.197,2.112 -1.7,3.215 -3.863,8.477 -10.266,9.522 -16.833,3.302 -3.107,-2.943 -6.85,-5.248 -10.448,-7.624 -2.244,-1.482 -4.544,-0.771 -6.809,0.489 -3.683,2.05 -7.542,3.506 -11.854,3.933 -4.713,0.466 -4.768,0.733 -5.431,-4.036 -0.57,-4.101 -3.022,-7.68 -2.454,-12.2 0.453,-3.609 1.812,-5.401 5.149,-6.349 2.758,-0.783 5.343,-1.285 6.679,-5.031 0.741,-2.077 4.65,-4.161 7.902,-4.008 1.894,0.089 2.955,-0.204 3.903,-1.816 1.487,-2.529 4.044,-2.247 6.466,-2.065 1.576,0.118 2.898,0.838 2.51,2.625 -0.875,4.029 1.717,5.374 4.678,5.212 3.401,-0.187 2.484,-3.479 2.806,-5.227 z M 263.66,142.115 c -1.937,0.478 -4.574,-1.59 -5.804,1.381 -1.263,3.051 2.251,3.847 3.105,5.934 0.476,1.162 1.499,1.817 2.444,2.568 1.704,1.354 3.51,1.562 4.611,-0.378 1.696,-2.99 3.537,-3.042 6.014,-1.115 0.642,0.499 1.539,0.391 2.218,-0.17 0.507,-0.419 0.785,-1.188 0.279,-1.566 -5.333,-3.98 -0.562,-3.305 1.729,-3.928 0.928,-0.253 1.773,-0.88 2.597,-1.426 0.464,-0.307 1.111,-0.783 1.132,-1.208 0.031,-0.638 -0.764,-0.728 -1.32,-0.765 -2.792,-0.184 -5.413,-1.547 -8.576,-1.093 -2.859,-0.6 -5.538,1.052 -8.429,1.766 z M 86.396,152.701 c -0.935,-1.046 -2.377,-1.294 -2.952,0.115 -2.242,5.492 -4.972,1.33 -6.674,0.027 -4.539,-3.473 -6.493,-3.66 -10.346,0.07 -1.67,1.617 -1.775,2.631 0.725,3.131 3.332,0.666 6.464,1.624 9.478,3.416 3.651,2.171 10.999,0.167 13.923,-3.204 0.501,-0.532 0.557,-1.063 -0.002,-1.594 -1.763,0.146 -3.014,-0.688 -4.152,-1.961 z m 313.283,139.207 c -0.216,0.154 -0.254,0.777 -0.156,1.121 0.773,2.722 1.593,5.453 4.842,6.238 2.809,0.679 4.865,-0.083 6.651,-2.618 2.237,-3.176 1.22,-6.946 2.5,-10.277 0.473,-1.23 -1.104,-1.882 -3.178,-1.896 -3.225,2.234 -6.961,4.806 -10.659,7.432 z m -86.083,20.15 c -2.503,1.759 -5.973,3.135 -7.259,5.811 -1.481,3.083 -2.015,6.813 -1.801,10.422 0.075,1.267 0.743,2.279 2.116,2.523 1.662,0.296 3.636,0.187 4.111,-1.517 1.317,-4.72 3.869,-9.05 4.519,-13.672 -0.559,-1.57 -0.036,-4.727 -1.686,-3.567 z m 12.469,-141.595 c -4.139,-4.596 -4.134,-5.565 0.561,-9.462 2.77,-2.299 5.792,-4.212 9.394,-5.062 1.538,-0.363 3.04,-0.949 4.482,-1.603 0.384,-0.174 0.695,-0.983 0.67,-1.481 -0.049,-0.943 -0.832,-1.432 -1.684,-1.223 -7.757,1.897 -15.519,3.804 -20.544,10.883 -2.009,2.83 -1.318,5.907 1.756,7.438 1.685,0.839 3.512,0.571 5.298,0.592 z m 163.347,193.855 c 1.447,-3.491 4.082,-5.679 7.012,-7.855 3.556,-2.641 3.301,-4.549 -0.368,-7.456 -0.775,-0.614 -1.552,-1.621 -2.555,-1.163 -1.211,0.553 -0.44,1.712 -0.28,2.633 0.461,2.662 0.104,4.482 -2.819,6.027 -2.483,1.313 -4.249,4.108 -6.113,6.423 -1.468,1.824 -0.675,3.754 1.609,3.886 1.567,0.021 2.915,-1.05 3.514,-2.495 z m -42.85,-132.574 c -0.806,-0.464 -1.653,-0.301 -2.075,0.458 -2.557,4.606 -6.823,6.856 -11.468,8.752 -1.899,0.775 -3.222,2.373 -3.124,4.675 0.038,0.89 0.533,1.675 1.464,1.261 4.246,-1.886 8.627,-3.581 12.583,-5.968 2.381,-1.436 3.186,-4.46 3.738,-6.806 0.064,-1.328 -0.389,-1.953 -1.118,-2.372 z m -64.729,-92.871 c -2.878,-1.879 -4.653,-0.09 -5.729,2.135 -1.12,2.314 -0.303,4.356 2.411,5.134 2.118,0.607 4.27,1.093 6.407,1.633 1.241,-0.997 1.957,-2.36 2.626,-3.757 -1.321,-2.365 -3.54,-3.726 -5.715,-5.145 z m 59.004,17.021 c -1.185,2.079 1.346,2.396 2.242,3.496 0.376,0.462 0.799,0.892 1.12,1.389 0.901,1.395 1.985,2.857 3.782,2.269 2.222,-0.727 -0.525,-2.377 0.342,-3.507 0.477,-0.622 0.88,-1.306 1.387,-1.901 1.199,-1.409 0.406,-2.18 -0.913,-2.543 -1.134,-0.312 -2.353,-0.316 -3.143,-0.409 -1.961,0.168 -3.948,-0.319 -4.817,1.206 z m -22.579,121.842 c 1.945,1.68 3.712,0.344 4.696,-0.844 1.064,-1.285 -0.11,-2.777 -1.667,-3.086 -2.818,-0.559 -2.988,-1.937 -2.01,-4.296 0.415,-1.001 -0.771,-1.86 -1.72,-2.117 -1.268,-0.344 -1.722,0.801 -2.038,1.724 -0.254,0.742 -0.225,1.582 -0.322,2.378 -0.197,2.688 1.14,4.581 3.061,6.241 z m -4.735,19.387 c 0.147,1.784 0.401,4.338 2.339,4.782 1.046,0.24 3.721,-0.704 3.545,-3.056 -0.128,-1.722 -0.534,-3.627 -2.944,-3.88 -1.436,0.07 -3.071,0.559 -2.94,2.154 z"
   id="path62"
   style="fill:#338000" />
</g></g>
</svg>
